<svg width="128" height="59" viewBox="0 0 128 59" xmlns="http://www.w3.org/2000/svg">
  <g fill="none" fill-rule="evenodd">
    <g class="word-levi" fill="#333">
      <path class="letter-levi-l" d="M4.14.454L0 2.006v21.677l4.14-1.552"/>
      <path class="letter-levi-v" d="M44.54 12.853h4.49L39.787 34.14h-1.4l-9.462-21.287h4.53l5.647 12.87"/>
      <path d="M54.26 4.052c.682 0 1.265.236 1.75.706.485.47.728 1.046.728 1.728 0 .667-.243 1.243-.728 1.728-.485.485-1.068.728-1.75.728-.638 0-1.2-.246-1.684-.74-.485-.492-.727-1.064-.727-1.716 0-.637.24-1.202.726-1.694.485-.493 1.046-.74 1.683-.74zm-2.047 29.723h4.138V12.853h-4.137v20.922z" class="letter-levi-i"/>
      <path d="M27.948 23.678H13.235c.106 2 .777 3.593 2.012 4.775 1.236 1.183 2.832 1.774 4.788 1.774 2.73 0 5.245-.85 7.55-2.547v4.048c-1.274.85-2.536 1.455-3.787 1.82-1.25.363-2.718.545-4.4.545-2.305 0-4.17-.477-5.594-1.433-1.426-.955-2.567-2.24-3.423-3.854-.855-1.615-1.284-3.484-1.284-5.606 0-3.183.902-5.772 2.706-7.766 1.805-1.994 4.147-2.99 7.028-2.99 2.774 0 4.987.97 6.64 2.91 1.652 1.94 2.478 4.54 2.478 7.8v.524zm-14.622-2.48h10.53c-.107-1.65-.6-2.925-1.48-3.82-.878-.894-2.06-1.34-3.546-1.34-1.487 0-2.703.446-3.65 1.34-.948.895-1.566 2.17-1.854 3.82z" class="letter-levi-e"/>
    </g>
    <g class="word-buzolic" fill="#E8186C">
      <path d="M0 26.79l4.14-1.554v13.9c1.787-1.303 3.698-1.955 5.73-1.955 2.652 0 4.82 1.002 6.503 3.003 1.683 2 2.524 4.57 2.524 7.71 0 3.365-1.004 6.044-3.013 8.038-2.01 1.994-4.696 2.99-8.06 2.99-1.35 0-2.772-.143-4.265-.43C2.065 58.2.88 57.836 0 57.397v-30.61zm4.14 16.304V54.42c1.41.423 2.856.636 4.342.636 1.834 0 3.332-.653 4.49-1.956 1.162-1.304 1.74-2.98 1.74-5.026 0-2.077-.54-3.767-1.625-5.07-1.084-1.305-2.498-1.957-4.24-1.957-1.547 0-3.116.682-4.708 2.047z" class="letter-buzolic-b"/>
      <path d="M36.794 58.557v-2.683c-.88.962-1.884 1.71-3.013 2.245-1.128.534-2.254.8-3.376.8-1.32 0-2.535-.33-3.65-.988-1.114-.66-1.955-1.554-2.524-2.684-.568-1.13-.853-3.005-.853-5.627V37.637h4.14V49.56c0 2.195.314 3.728.943 4.6.628.87 1.732 1.305 3.31 1.305 1.97 0 3.644-.963 5.024-2.89v-14.94h4.14v20.922h-4.14z" class="letter-buzolic-u"/>
      <path class="letter-buzolic-z" d="M44.8 37.636h17.873l-11.08 17.056h11.08v3.866h-18.33l10.998-17.056H44.8"/>
      <path d="M76.18 37.59c3.185 0 5.83 1.028 7.937 3.082 2.108 2.054 3.16 4.635 3.16 7.743 0 3.017-1.067 5.522-3.205 7.515-2.137 1.994-4.83 2.99-8.073 2.99-3.14 0-5.762-1.01-7.87-3.035-2.107-2.023-3.16-4.55-3.16-7.584 0-3.06 1.065-5.612 3.195-7.65 2.13-2.04 4.802-3.06 8.016-3.06zm-.227 3.73c-1.986 0-3.615.652-4.888 1.956-1.274 1.304-1.91 2.964-1.91 4.98 0 2 .65 3.635 1.955 4.9 1.304 1.266 2.98 1.9 5.025 1.9 2.032 0 3.696-.64 4.992-1.923 1.296-1.28 1.945-2.92 1.945-4.923 0-1.985-.675-3.63-2.024-4.934-1.35-1.304-3.047-1.956-5.095-1.956z" class="letter-buzolic-o"/>
      <path class="letter-buzolic-l" d="M91.963 26.79l4.138-1.554v33.32h-4.137"/>
      <path d="M104.22 28.836c.683 0 1.266.234 1.752.704.485.47.726 1.047.726 1.73 0 .666-.24 1.242-.726 1.727-.486.485-1.07.727-1.752.727-.636 0-1.197-.246-1.682-.74-.486-.492-.728-1.063-.728-1.715 0-.638.242-1.203.728-1.696.485-.492 1.046-.738 1.682-.738zm-2.046 29.72h4.14v-20.92h-4.14v20.92z" class="letter-buzolic-i"/>
      <path d="M127.984 53.668v4.094c-2.077.772-4.11 1.16-6.094 1.16-3.275 0-5.887-.97-7.835-2.912-1.948-1.94-2.922-4.54-2.922-7.8 0-3.29.948-5.942 2.843-7.96 1.895-2.015 4.39-3.023 7.48-3.023 1.078 0 2.044.102 2.9.307.857.204 1.915.587 3.174 1.148v4.412c-2.092-1.334-4.034-2.002-5.822-2.002-1.865 0-3.397.656-4.593 1.968-1.2 1.31-1.797 2.982-1.797 5.014 0 2.138.648 3.835 1.944 5.094 1.296 1.258 3.044 1.888 5.242 1.888 1.592 0 3.418-.463 5.48-1.388" class="letter-buzolic-c"/>
    </g>
  </g>
</svg>
