<svg xmlns="http://www.w3.org/2000/svg" width="240" height="270" viewBox="0 0 240 270">
  <g fill="none" fill-rule="evenodd">
    <path stroke="#F6F1EC" stroke-width="2" d="M122 45h2V2h-2zm1 2.5a1.5 1.5 0 1 1-3 0 1.5 1.5 0 0 1 3 0zm2 1.5l5 15m-9-15l-4 15m8.312 61h-3.41c-1.407 0-4.69-3.202-4.69-4.573L117 70.95c0-1.372 1.15-3.95 2.558-3.95h7.032c1.407 0 2.558 2.578 2.558 3.95l.852 49.684c0 1.372-3.282 4.366-4.688 4.366z"/>
    <path stroke="#F6F1EC" stroke-width="2" d="M77 100.72c2.587-.556 6.927-.533 8.193.556 1.265 1.087 30.358.628 30.358.628s4.853-1.904 8.018-1.904c3.165 0 7.596 1.904 7.596 1.904s29.54.272 30.806-.816c1.267-1.088 6.497-.357 9.029.188m-2 3.342c-2.5-.647-8.748-1.942-10.414.648-1.062 1.65-28.12 0-28.12 0S126.094 103 122.97 103c-3.124 0-7.915 2.266-7.915 2.266s-29.16.324-30.41-.972c-1.249-1.294-5.09-1.324-7.644 0M156.898 148c-4.274-3.818-15.555-11.47-31.742-11.47-17.027 0-33.69 11.15-33.69 11.15l1.738-4.8L89 141.445s15.556-10.39 36.156-10.446C148.17 130.937 159 141.855 159 141.855l-2.668 1.22.566 4.925z"/>
    <path stroke="#F6F1EC" stroke-width="2" d="M134.883 156c-1.596-1.367-5.531-3.261-11.577-3.261-6.358 0-13.4 2.866-13.4 2.866l1.058-3.561-2.964-1.582S115.402 147 123.095 147c7.693 0 13.905 3.66 13.905 3.66l-3.175 1.582 1.058 3.758zM117 143h12v-5h-12z"/>
    <path fill="#F6F1EC" d="M122 142h-.758v-2.336l-1.242.323v-.477l2-.51z"/>
    <path fill="#F6F1EC" d="M122.339 139.98c0-.33-.364-.556-.838-.556-.48 0-.84.228-.84.556 0 .329.36.556.84.556.474 0 .838-.227.838-.556zm-.632.95c-.08.017-.18.03-.318.03-.757 0-1.389-.42-1.389-.98s.641-.98 1.501-.98c.855 0 1.499.42 1.499.98 0 .26-.13.487-.371.744l-1.19 1.276h-.784l1.052-1.07zM126 142h-.758v-2.336l-1.242.323v-.477l2-.51z"/>
    <path fill="#F6F1EC" d="M127 142h-.757v-2.336l-1.243.323v-.477l2-.51zm-11.544 8.293l-.302.363c-.25-.19-.58-.258-.918-.155-.577.176-.87.711-.678 1.302.191.592.747.868 1.324.693a.963.963 0 0 0 .66-.634l.458.15c-.13.417-.485.758-.98.909-.868.264-1.676-.152-1.94-.971-.266-.82.15-1.61 1.019-1.874.503-.153 1.02-.072 1.357.217m2.544 1.583l-.753.124-1.247-2.876.753-.124z"/>
    <path fill="#F6F1EC" d="M120 149.42l-1.16.166.566 2.331-.579.083-.566-2.331-1.159.166-.102-.421 2.898-.414zm.93 1.346l1.011-.045-.565-1.238-.447 1.283zm2.07 1.102l-.525.023-.333-.732-1.37.06-.264.759L120 152l1.057-2.973.61-.027 1.333 2.868zm1.63-2.397l-.093 2.047.754.03c.752.028 1.138-.387 1.165-.98.028-.602-.32-1.04-1.073-1.068l-.753-.03zm.774-.422c1 .039 1.634.65 1.594 1.538-.04.89-.727 1.45-1.728 1.411l-1.27-.048.134-2.95 1.27.049zm4.067 2.951l-2.471-.322.56-2.678 2.44.318-.085.405-1.893-.247-.151.721 1.828.239-.085.406-1.828-.239-.154.74 1.925.251zm3.372 0l-2.843-.467 1.025-2.533.641.105-.867 2.146 2.201.362z"/>
    <path stroke="#F6F1EC" stroke-width="2" d="M167.954 80.357v-4.929l.21-.214.836-3.643-3.977-.642-.837 3.214h-2.512v-3.214l-4.185 1.07L156.86 75l1.256 1.286V81l-.627.643.627.857V87h-8.581v-6.643h-9.628v-6.643h-9.837v-3s1.255-.642 1.255-1.071c0-.429.42-1.286.42-1.286v-3.214S128.394 63 123.161 63c-5.249 0-8.162 2.571-8.162 2.571l.209 3s.628-.214.628.643v.858l1.465.857"/>
    <path stroke="#F6F1EC" stroke-width="2" d="M157 81.163c1.687-.63 4.64-1.47 7.383-1.05 2.742.42 4.008.84 4.219.84.21 0 .21.63.21.63h1.477s0 .84-.422.63c-.422-.21-.422-.42-.632.21-.212.63-.422.63-.633.42-.211-.21-.423 0-.423.63s-.21 1.05-.421 1.05.21 15.961.21 15.961 1.688 0 2.11.21c.422.21-.211 2.73-.633 3.15-.422.42-.843.84-.632 1.26.21.42 41.765 28.772 41.765 28.772l8.227-10.5 18.562 8.19.633 45.992V268"/>
    <path stroke="#F6F1EC" stroke-width="2" d="M158 82.666c2.49-1.333 3.32-1.666 5.604-1.666 2.499 0 5.396 2 5.396 2m-52-6s2.91-3 6.38-3c2.859 0 6.126 3 6.126 3l9.494-.25"/>
    <path stroke="#F6F1EC" stroke-width="2" d="M117 77s2.91-3 6.38-3c2.859 0 6.126 3 6.126 3l9.494-.25M149.208 88H160l-1.453 3H149zm-10.012-7H148v3h-9zM161 77h3v-3h-3z"/>
    <path stroke="#F6F1EC" stroke-width="2" d="M161 74l.6 2h1.8l.6-2m-7 2l.421-2.2L161 73m4 0l3 1m-9 17l.406 15.647a3.898 3.898 0 0 0 1.332 2.844c.93.81 2.412 1.6 4.61 1.5 4.597-.208 4.159-1.665 4.159-3.54 0-1.92.493-2.55.493-2.55M159 113v3.347s1.91-1.464 1.697 5.021c-.198 6.064.849 41.632.849 41.632H166l-1.909-50H159zm14.643 67.552c10.667-2.323 17.918-2.236 25.348.448.874-1.79 3.009-6.586 3.009-6.586S193.376 170 186.34 170c-6.868 0-16.34 4.647-16.34 4.647l3.643 5.905zm-125 0c10.667-2.323 17.918-2.236 25.348.448.874-1.79 3.009-6.586 3.009-6.586S68.376 170 61.34 170c-6.868 0-16.34 4.647-16.34 4.647l3.643 5.905zm125.99.448H197v49h-23v-49zm-.633 1h23"/>
    <path stroke="#F6F1EC" stroke-width="2" d="M198 228.214h3V234h-30v-6h3v2.786h24zM229 128v140m-18-134v134m-65-56h13v-11h-13z"/>
    <path stroke="#F6F1EC" stroke-width="2" d="M148 211h11v-9h-11z"/>
    <path stroke="#F6F1EC" stroke-width="2" d="M158 203c.334-.25 2-2 2-2m-2 10l2 1m-12-1l-2 1m2-9l-2-2m29-46.5c0 5.799 4.477 10.5 10 10.5s10-4.701 10-10.5-4.477-10.5-10-10.5-10 4.701-10 10.5z"/>
    <path stroke="#F6F1EC" stroke-width="2" d="M178 156a7 7 0 1 0 14 0 7 7 0 0 0-14 0zm7-12v3m-5-2l2 3m-5 1l3 3m-5 2l3 1m-3 3l3-1m-1 6l3-3m1 5l2-3m2.226 3l-.226-3m6 2l-2-3m5 1l-3-3m4-2l-3-1m3-4l-3 1m1-4l-3 3m0-7l-2 3m-62.827 36.313l.168-1.313h-6.055l.12 1.421c-6.934 1.09-16.406 4.874-16.406 4.874l3.766 5.705c16.278-7.279 31.102-.085 31.102-.085L141 189.07s-8.994-3.863-15.827-4.757z"/>
    <path stroke="#F6F1EC" stroke-width="2" d="M107.208 194L107 204h31v-10M80.048 80.387V75.48l-.21-.213L79 71.64l3.984-.64.839 3.2h2.516V71l4.193 1.067.629 2.986-1.258 1.28v4.694l.629.64-.629.853V87H98.5v-6.613h9.645v-6.613H118"/>
    <path stroke="#F6F1EC" stroke-width="2" d="M89.291 81.162c-1.675-.63-4.608-1.469-7.33-1.05-2.723.42-3.98.84-4.19.84-.21 0-.21.63-.21.63h-1.465s0 .839.419.629c.419-.21.419-.42.628.21.21.63.419.63.628.42.21-.21.42 0 .42.63 0 .629.209 1.048.419 1.048s-.21 15.947-.21 15.947-1.676 0-2.094.21c-.42.21.209 2.728.628 3.148.419.42.837.839.628 1.258-.21.42-48.334 28.747-48.334 28.747l-8.169-10.492-18.431 8.184L2 177.473V268h236"/>
    <path stroke="#F6F1EC" stroke-width="2" d="M89 82.666C86.51 81.334 85.68 81 83.396 81 80.897 81 78 83 78 83m39-6.704L107 76m10-1.704L107 74M96.792 88H86l1.453 3H97zm9.012-8H97v3h9zM82 77h3v-3h-3z"/>
    <path stroke="#F6F1EC" stroke-width="2" d="M85 74l-.6 2h-1.8l-.6-2m7 2l-.421-2.2L85 73m-3-1l-3 1m83 37.84c-1.514 0-30.645.628-30.645.628S126.528 110 123.38 110c-3.148 0-7.556 1.468-7.556 1.468s-31.65.21-33.163.21L38 143.134V268M89 91l-.406 15.647a3.899 3.899 0 0 1-1.332 2.844c-.93.81-2.412 1.6-4.61 1.5-4.597-.208-4.16-1.665-4.16-3.54 0-1.92-.492-2.55-.492-2.55"/>
    <path stroke="#F6F1EC" stroke-width="2" d="M88 113v3.347s-1.862-1.464-1.655 5.021c.193 6.064 0 41.632 0 41.632H82l1.034-50H88zm-15.633 67H50v49h23v-49zm.633 2H50"/>
    <path stroke="#F6F1EC" stroke-width="2" d="M49 228.214h-3V234h30v-6h-3v2.786H49zM11 128v140m18-134v134m57-90v3.393s-1.714-.212-1.714 5.09c0 6.148.214 81.517.214 81.517H80l.857-90H86zm1 34h13v-11H87z"/>
    <path stroke="#F6F1EC" stroke-width="2" d="M89 211h11v-9H89z"/>
    <path stroke="#F6F1EC" stroke-width="2" d="M89 203c-.334-.25-2-2-2-2m2 9l-2 1m12-1l2 1m-2-8l2-2m-50-46.5c0 5.799 4.477 10.5 10 10.5s10-4.701 10-10.5S66.523 144 61 144s-10 4.701-10 10.5z"/>
    <path stroke="#F6F1EC" stroke-width="2" d="M55 156a7 7 0 1 0 14 0 7 7 0 0 0-14 0zm-34-33l26 .592M219 123l-21 2m-90 136h31v-55h-31z"/>
    <path stroke="#F6F1EC" stroke-width="2" d="M112 255h9v-45h-9zm13 0h9v-45h-9zm-37.726-92l-.416 2.625H80l.832-2.625h83.129l1.039 3h-6.442l-.624-3"/>
    <path stroke="#F6F1EC" stroke-width="2" d="M93.656 163L93 166h6.782l.218-3m6.656 0l-.656 3h6.563l.437-3m7 .107V166h7l-.225-3m5.225 0v3h7l-.219-3m6.219 0l.424 3H152l-.636-3M87 167h-8m9 0v3h-7.649l-.891-1.884-.46-.973h8.775zm5 0h7v3h-7v-2.025zm7 0h-7m13 0h7v3h-7v-2.025zm7 0h-7m14 0h7v3h-7v-2.025zm7 0h-7m12 0h7v3h-7v-2.025zm8 0h-7m5 3h7l-.424 3h-6.152l-.212-2.025zm8 0h-7m-13 0h7l-.425 3h-6.151l-.212-2.025zm7 0h-7m-13 0h7l-.425 3h-6.151l-.212-2.025zm7 0h-7m-13 0h7l-.425 3h-6.151l-.212-2.025zm7 0h-7m-14 0h7l-.424 3h-6.151l-.213-2.025zm7 0h-7m67 0h7l-.425 3h-6.151l-.212-2.025zm7 0h-7m-7-3h7v3h-7v-2.025zm7 0h-7m13 0h7v3h-7v-2.025zm7 0h-7m-35.925 7H85.638c-8.735 0-7.903.652-7.28 1.522.45.627 2.08 3.478 2.08 3.478h85.123s1.63-2.851 2.08-3.478c.624-.87 1.456-1.522-7.279-1.522h-37.437M79 177l89 .223M62 144v3m-5-2l2 3m-5 1l3 3m-6 2l3 1m-3 3l3-1m0 6l3-3m1 5l2-3m2.225 3L62 162m5 2l-2-3m6 1l-3-3m4-2l-3-1m3-4l-3 1m1-4l-3 3m-1-7l-2 3m56 36l2 7m5-7l-2 7"/>
  </g>
</svg>
