<svg xmlns="http://www.w3.org/2000/svg" width="400" height="400" viewBox="0 0 400 400">
  <g fill="none" fill-rule="evenodd">
    <g transform="translate(178 55)">
      <path stroke="#242430" stroke-width="6" d="M3 17h99v99H3z"/>
      <circle cx="93" cy="18" r="15" fill="#FBFBFA"/>
      <path fill="#FF7A64" fill-rule="nonzero" d="M88.5 0C76.63 0 67 9.85 67 22c0 19.8 17.2 33 21.5 33 4.3 0 21.5-13.2 21.5-32.997C110 9.85 100.37 0 88.5 0zm1 28c-4.694 0-8.5-3.582-8.5-8s3.806-8 8.5-8 8.5 3.582 8.5 8-3.806 8-8.5 8z"/>
      <path fill="#39D9D9" fill-rule="nonzero" d="M41 36c-14.907 0-27 12.357-27 27.601C14 88.44 35.6 105 41 105c5.4 0 27-16.56 27-41.396C68 48.357 55.907 36 41 36zm0 38c-6.075 0-11-4.925-11-11s4.925-11 11-11 11 4.925 11 11-4.925 11-11 11z"/>
    </g>
    <g transform="translate(188 186)">
      <path fill="#334DAA" d="M0 0h160v160H0z"/>
      <path fill="#FF7A64" d="M65 108h7v33h-7z"/>
      <path fill="#FF7A64" d="M70 135h10v6H70zm15-27h7v33h-7z"/>
      <path fill="#FF7A64" d="M90 135h10v6H90z"/>
      <circle cx="43.5" cy="80.5" r="4.5" fill="#39D9D9"/>
      <circle cx="116.5" cy="80.5" r="4.5" fill="#39D9D9"/>
      <path fill="#39D9D9" d="M78.687 68.687c14.19 0 34.688-13.054 34.688-17.343C113.375 47.054 93.52 34 78.687 34 63.855 34 44 47.646 44 51.344c0 3.697 20.499 17.343 34.687 17.343z"/>
      <path fill="#242430" d="M78.687 72.687c14.19 0 34.688-13.054 34.688-17.343C113.375 51.054 93.52 38 78.687 38 63.855 38 44 51.646 44 55.344c0 3.697 20.499 17.343 34.687 17.343z"/>
      <circle cx="79" cy="55" r="12" fill="#FBFBFA"/>
      <circle cx="79" cy="56" r="6" fill="#FF7A64"/>
      <path stroke="#FF7A64" stroke-linecap="round" stroke-width="3" d="M58.4 23.321l3.2 8.358m15.9-14.346v9.334m20.083-2.334l-4.166 7.334"/>
      <path stroke="#FF7A64" stroke-width="3" d="M47 107c0-18.225 14.55-33 32.5-33S112 88.775 112 107H47z"/>
    </g>
    <g transform="translate(53 57)">
      <path fill="#242430" d="M0 0h104v148H0z"/>
      <path fill="#FCFCFB" d="M52.487 90l-29-29h58z"/>
      <circle cx="53" cy="45" r="15" fill="#FF7A64"/>
      <circle cx="84.5" cy="53.5" r="5.5" fill="#FF7A64"/>
      <circle cx="19.5" cy="53.5" r="5.5" fill="#FF7A64"/>
      <path fill="#334DAA" d="M53.047 16.182l19.865 19.865h-39.73zM37 92h8v38h-8z"/>
      <path fill="#334DAA" d="M29 123h11v7H29zm31-31h8v38h-8z"/>
      <path fill="#334DAA" d="M52 123h11v7H52z"/>
    </g>
    <g transform="translate(300 57)">
      <path fill="#39D9D9" d="M0 0h48v117H0z"/>
      <path fill="#242430" d="M9 71h31v6H9zm0 9h31v6H9zm0 9h31v6H9z"/>
      <circle cx="24" cy="28" r="14" stroke="#FBFBFA" stroke-width="2"/>
      <circle cx="24" cy="28" r="14" stroke="#242430" stroke-dasharray="39" stroke-linecap="round" stroke-width="3"/>
      <circle cx="26" cy="106" r="5" fill="#FBFBFA"/>
      <path stroke="#FBFBFA" stroke-linecap="square" stroke-width="2" d="M11.5 63.5l7.28-7.28m-.28.28l7 4m0 0l13-9"/>
    </g>
    <g transform="translate(52 225)">
      <circle cx="60.5" cy="60.5" r="60.5" fill="#FCFCFB" stroke="#FF7A64" stroke-width="4"/>
      <path fill="#242430" d="M48.952 69.964H68.02V50.828H48.952v19.136zM99 81.739c-.269.536-.478 1.113-.817 1.6-.98 1.407-2.767 2.013-4.408 1.56-1.594-.441-2.818-1.848-2.992-3.44-.197-1.793.62-3.435 2.204-4.206.519-.253.65-.537.647-1.071-.02-3.732-.01-9.463-.012-13.195 0-.257-.023-.514-.036-.803H70.6v4.457h17.446V82.17H79.01c0 1.537-.024 2.985.029 4.43.007.203.367.446.612.58 1.468.804 2.384 2.43 2.218 3.997-.191 1.814-1.343 3.22-3.014 3.678a4.141 4.141 0 0 1-4.923-2.442c-.78-1.95.001-4.217 1.879-5.158.61-.306.735-.652.724-1.268-.035-1.985-.01-3.97-.007-5.955 0-.078.015-.157.035-.338h8.987V69.187H70.592v3.308h-3.389l-2.506.081h-2.483l-2.423.023h-2.509l-2.473-.025h-2.454l-2.505-.027h-3.39v-3.345H29.836v.731c0 2.435.01 4.87-.009 7.304-.004.47.092.742.564.976 1.79.887 2.649 2.766 2.197 4.629-.462 1.902-2.085 3.196-4.009 3.196-1.915 0-3.542-1.296-4.014-3.197-.456-1.833.429-3.76 2.203-4.633.464-.229.577-.485.575-.963-.019-3.492-.01-6.983-.01-10.583h19.072v-2.48c-.167-.01-.171-.847-.014-2.51v-2.516H28.973v-8.372c-.797 0-1.505.03-2.209-.01-.49-.03-.72.136-.945.591-1.124 2.282-3.917 3.012-5.987 1.619-.972-.654-1.469-1.625-1.832-2.692v-1.588c.24-.49.428-1.016.727-1.467 1.712-2.585 5.544-2.403 7.012.356.3.563.62.724 1.212.709 1.471-.04 2.943-.013 4.506-.013v8.337h14.92V54.21h-5.783V43.63c-.053-.008-.235-.994-.545-2.959.265-.186.497-.622.503-.947.043-2.328.011-4.658.033-6.987.004-.465-.156-.683-.573-.889-1.798-.885-2.672-2.794-2.211-4.703.437-1.807 2.115-3.13 3.987-3.145 1.886-.014 3.61 1.348 4.032 3.187.441 1.923-.433 3.778-2.255 4.682-.386.191-.536.396-.536.832.012 6.167.006 12.334.006 18.5 0 .13.02.259.037.448h3.36v-3.334h3.375l2.49-.084h2.463l2.472-.01h2.48l2.492.007h2.46l2.513.04h3.366v3.401H85.55c.018-.274.048-.528.049-.782.002-5.294-.004-10.587.011-15.88.002-.503-.113-.785-.606-1.028-1.758-.865-2.599-2.759-2.15-4.653a4.133 4.133 0 0 1 4.036-3.172c1.874.018 3.494 1.313 3.963 3.167a4.039 4.039 0 0 1-2.158 4.65c-.545.264-.617.579-.616 1.094.013 6.06.008 12.122.008 18.183v.949h-17.48v2.414l-.002 2.587v.485h25.518v.98c0 4.527-.005 11.053.011 15.579.001.276.096.726.272.801 1.408.599 2.13 1.737 2.595 3.108v1.588z"/>
      <circle cx="41.5" cy="28.5" r="3.5" fill="#242430"/>
      <circle cx="87.5" cy="30.5" r="3.5" fill="#242430"/>
      <circle cx="95.5" cy="81.5" r="3.5" fill="#242430"/>
      <circle cx="78.5" cy="90.5" r="3.5" fill="#242430"/>
      <circle cx="28.5" cy="82.5" r="3.5" fill="#242430"/>
      <circle cx="22.5" cy="48.5" r="3.5" fill="#242430"/>
      <path fill="#FF7A64" d="M52 54h13v13H52z"/>
    </g>
  </g>
</svg>
