<svg xmlns="http://www.w3.org/2000/svg" width="65" height="31" viewBox="0 0 65 31">
  <path fill="#fff" d="M20.744 13.362v11.712c0 2.01.1 3.633.76 5.326h-6.87c-.364-.705-.628-1.517-.794-2.363C12.288 30.189 10.042 31 7.4 31 2.675 30.965 0 27.93 0 23.698c0-4.586 2.543-7.338 9.513-8.255l4.228-.53v-1.022c0-2.187-.594-2.963-2.84-2.963-2.148 0-2.973.811-3.04 2.786H.926C1.057 8.494 4.724 5.812 11 5.812c7.002 0 9.744 2.787 9.744 7.55zm-9.612 6.385c-2.874.458-3.964 1.376-3.964 3.14 0 1.516.892 2.469 2.543 2.469 2.247 0 4.03-1.623 4.03-3.88v-2.047l-2.61.318zm20.796 3.252c0 2.009.159 2.494 2.266 2.494.358 0 .517 0 .994-.035v5.161c-.994.208-2.465.381-4.215.381-4.77 0-7.514-2.147-7.514-7.031V0h8.469v22.999zM46.03 7.859h5.89v5.07h-5.89v9.495c0 1.906.596 2.79 2.833 2.79 1.267 0 2.274-.17 3.43-.442v5.445c-1.64.477-3.58.783-5.704.783-6.374 0-8.499-2.757-8.499-7.419V12.964H34.7V7.859h3.392V1.938h7.94v5.92zM65 26.156C65 28.762 62.73 31 60.094 31c-2.599 0-4.868-2.238-4.868-4.844 0-2.642 2.27-4.843 4.868-4.843 2.636 0 4.906 2.201 4.906 4.843z"/>
</svg>
